HIERARCHY
ROOT Hips
{
	OFFSET -3.958830 18.904000 13.208200
	CHANNELS 6 Xposition Yposition Zposition Zrotation Yrotation Xrotation 
	JOINT LHipJoint
	{
		OFFSET 0.000000 0.000000 0.000000
		CHANNELS 3 Zrotation Yrotation Xrotation
		JOINT LeftUpLeg
		{
			OFFSET 1.800000 -1.400000 0.085000
			CHANNELS 3 Zrotation Yrotation Xrotation
			JOINT LeftLeg
			{
				OFFSET 2.215000 -6.000000 0.000000
				CHANNELS 3 Zrotation Yrotation Xrotation
				JOINT LeftFoot
				{
					OFFSET 2.500000 -6.900000 0.000000
					CHANNELS 3 Zrotation Yrotation Xrotation
					JOINT LeftToeBase
					{
						OFFSET 0.200000 -0.500000 1.950000
						CHANNELS 3 Zrotation Yrotation Xrotation
						End Site
						{
							OFFSET 0.000000 0.000000 0.000000
						}
					}
				}
			}
		}
	}
	JOINT RHipJoint
	{
		OFFSET 0.000000 0.000000 0.000000
		CHANNELS 3 Zrotation Yrotation Xrotation
		JOINT RightUpLeg
		{
			OFFSET -1.800000 -1.400000 0.085000
			CHANNELS 3 Zrotation Yrotation Xrotation
			JOINT RightLeg
			{
				OFFSET -2.215000 -6.000000 0.000000
				CHANNELS 3 Zrotation Yrotation Xrotation
				JOINT RightFoot
				{
					OFFSET -2.500000 -6.900000 0.000000
					CHANNELS 3 Zrotation Yrotation Xrotation
					JOINT RightToeBase
					{
						OFFSET -0.200000 -0.500000 1.950000
						CHANNELS 3 Zrotation Yrotation Xrotation
						End Site
						{
							OFFSET 0.000000 0.000000 0.000000
						}
					}
				}
			}
		}
	}
	JOINT LowerBack
	{
		OFFSET 0.000000 0.000000 0.000000
		CHANNELS 3 Zrotation Yrotation Xrotation
		JOINT Spine
		{
			OFFSET -0.087000 1.940000 -0.288900
			CHANNELS 3 Zrotation Yrotation Xrotation
			JOINT Spine1
			{
				OFFSET 0.000000 1.950000 0.060000
				CHANNELS 3 Zrotation Yrotation Xrotation
				JOINT Neck
				{
					OFFSET 0.000000 0.000000 0.000000
					CHANNELS 3 Zrotation Yrotation Xrotation
					JOINT Neck1
					{
						OFFSET 0.000000 1.600000 0.340000
						CHANNELS 3 Zrotation Yrotation Xrotation
						JOINT Head
						{
							OFFSET 0.000000 1.667000 -0.240000
							CHANNELS 3 Zrotation Yrotation Xrotation
							End Site
							{
								OFFSET 0.000000 0.000000 0.000000
							}
						}
					}
				}
				JOINT LeftShoulder
				{
					OFFSET 0.000000 0.000000 0.000000
					CHANNELS 3 Zrotation Yrotation Xrotation
					JOINT LeftArm
					{
						OFFSET 2.700000 1.550000 -0.730000
						CHANNELS 3 Zrotation Yrotation Xrotation
						JOINT LeftForeArm
						{
							OFFSET 5.450000 0.000000 0.000000
							CHANNELS 3 Zrotation Yrotation Xrotation
							JOINT LeftHand
							{
								OFFSET 3.450000 0.000000 0.000000
								CHANNELS 3 Zrotation Yrotation Xrotation
								JOINT LeftHandIndex1
								{
									OFFSET 0.750000 0.000000 0.000000
									CHANNELS 3 Zrotation Yrotation Xrotation
									End Site
									{
										OFFSET 0.000000 0.000000 0.000000
									}
								}
							}
						}
					}
				}
				JOINT RightShoulder
				{
					OFFSET 0.000000 0.000000 0.000000
					CHANNELS 3 Zrotation Yrotation Xrotation
					JOINT RightArm
					{
						OFFSET -2.700000 1.550000 -0.730000
						CHANNELS 3 Zrotation Yrotation Xrotation
						JOINT RightForeArm
						{
							OFFSET -5.450000 0.000000 0.000000
							CHANNELS 3 Zrotation Yrotation Xrotation
							JOINT RightHand
							{
								OFFSET -3.450000 0.000000 0.000000
								CHANNELS 3 Zrotation Yrotation Xrotation
								JOINT RightHandIndex1
								{
									OFFSET -0.750000 0.000000 0.000000
									CHANNELS 3 Zrotation Yrotation Xrotation
									End Site
									{
										OFFSET 0.000000 0.000000 0.000000
									}
								}
							}
						}
					}
				}
			}
		}
	}
}
MOTION
Frames: 6
Frame Time: 0.016667
0.654500 17.282860 -2.779260 -0.287520 6.712362 4.290869 -15.115902 13.182608 2.704105 1.076835 -2.393567 -14.741011 -6.616891 7.505455 23.400464 -0.142503 5.722461 3.204903 -0.696830 -1.170960 -0.738140 18.398301 -10.988925 2.577505 -1.370995 2.599602 -24.096762 2.430135 -5.624721 25.495521 0.450840 -4.201630 3.318182 -0.486850 1.519160 0.270070 -3.943116 -1.215151 -6.437936 8.574539 -1.380528 1.302425 -4.563782 -1.169161 6.437816 1.069029 -1.967199 -5.909685 -4.458046 -1.088283 27.438625 -4.144750 -2.838250 18.797530 -8.043271 6.533968 1.438287 -71.823495 -10.060614 -1.366233 -19.951990 -38.722633 4.096019 -4.653843 3.064377 -0.177270 1.020420 -0.993510 0.244390 5.806293 -5.703738 1.719241 64.514497 0.658490 -8.536830 8.383700 19.844417 -0.717486 2.071040 -1.415152 -0.564700 0.371060 0.599580 0.115220 
0.659610 17.240340 -2.797520 -0.369787 6.814316 4.107753 -15.104586 13.173225 2.718408 0.989776 -2.525207 -14.904243 -6.468204 7.568931 24.256212 -0.134713 5.757982 3.150989 -0.623810 -1.088100 -0.692230 18.409921 -10.966025 2.614839 -1.347179 2.803477 -24.929471 2.349509 -5.831859 27.229715 0.379440 -4.341190 3.229321 -0.452630 1.443420 0.268060 -3.979907 -1.230667 -6.495522 8.936005 -1.525464 1.722776 -4.845662 -1.232967 6.432938 1.039158 -2.231672 -6.020411 -5.062396 -0.773500 28.179502 -3.381060 -3.192160 17.706500 -8.340110 6.203507 1.531560 -71.304279 -10.007473 -1.556744 -20.817238 -39.843316 4.525723 -4.571211 3.105404 -0.134010 0.954470 -0.937720 0.248420 6.112539 -5.203650 1.783088 63.940341 0.749041 -8.502886 7.951311 19.558985 -0.743717 2.088119 -1.414266 -0.533850 0.352470 0.563940 0.107450 
0.666890 17.145900 -2.828970 -0.416418 6.992592 3.918175 -15.092195 13.134010 2.730752 0.796974 -2.723946 -15.168482 -6.240607 7.684969 25.557193 -0.109291 5.836557 3.083851 -0.545810 -0.994120 -0.648500 18.428811 -10.899452 2.712635 -1.570278 3.279822 -26.895543 2.402862 -6.386121 30.806462 0.262186 -4.728466 3.051974 -0.417420 1.369550 0.259860 -4.029297 -1.241460 -6.603851 9.283046 -1.708313 2.458322 -5.234203 -1.281660 6.171663 1.007088 -2.535854 -6.093940 -5.747690 -0.499251 28.997154 -2.407120 -3.724200 16.490490 -9.072735 5.919335 1.596797 -70.076753 -9.680977 -1.845801 -22.923478 -42.389637 5.737374 -4.476797 3.157809 -0.091210 0.884780 -0.879530 0.258030 6.837762 -4.703268 1.771796 62.675445 0.749681 -8.337023 7.297584 18.830925 -0.778619 2.112449 -1.401027 -0.499040 0.342870 0.523870 0.105190 
0.676880 17.024070 -2.870010 -0.216698 7.299236 3.777744 -15.100137 13.050154 2.758823 0.290322 -3.097560 -15.706447 -5.998422 7.903223 27.551652 -0.087413 6.040785 2.982118 -0.477070 -0.921910 -0.604980 18.444689 -10.720932 2.894298 -2.454520 4.029034 -30.122763 2.692275 -7.437635 36.210553 0.080267 -5.480389 2.735604 -0.380970 1.309690 0.249320 -4.042903 -1.347844 -6.788415 9.322392 -2.037375 3.563794 -5.541040 -1.415715 5.517041 0.954759 -3.088190 -6.085854 -6.856803 -0.192586 29.555365 -1.715180 -4.239110 15.199270 -10.521221 5.682511 1.450054 -68.395877 -9.388535 -1.993433 -24.683479 -45.163206 7.011791 -4.395097 3.186687 -0.032630 0.819520 -0.828520 0.270000 8.310746 -4.053682 1.767606 60.483251 0.673539 -8.182338 6.755798 19.116692 -0.733063 2.116793 -1.388002 -0.489750 0.349160 0.492760 0.094370 
0.680980 16.893280 -2.908710 0.081692 7.783989 3.482356 -15.136642 12.939208 2.784419 -0.221157 -3.577415 -16.336446 -5.639430 8.167043 29.949101 -0.033466 6.314464 2.860626 -0.431160 -0.872010 -0.573920 18.446039 -10.454730 3.151926 -3.842690 4.820112 -33.806784 2.965751 -8.919004 42.765010 -0.160748 -6.570693 2.328948 -0.361410 1.259030 0.232010 -3.989385 -1.541714 -7.047328 8.692668 -2.359183 4.958601 -5.442647 -1.555844 4.705015 0.964363 -3.371177 -6.142511 -7.586810 0.087819 30.444090 -0.965290 -4.622920 14.430370 -12.333321 5.096793 1.315036 -66.451717 -9.057301 -2.272982 -26.320630 -47.740682 8.290036 -4.329583 3.198037 0.013140 0.765710 -0.788580 0.275340 10.106255 -3.227342 1.851719 57.743940 0.326315 -7.994436 6.418545 19.088596 -0.642056 2.128192 -1.361935 -0.481670 0.354170 0.467450 0.085380 
0.683430 16.776170 -2.951900 0.291454 8.366595 2.663349 -15.179170 12.821011 2.851640 -0.262089 -4.230804 -16.917218 -5.667384 8.725129 32.997623 0.070822 6.728025 2.653589 -0.342500 -0.781720 -0.454920 18.429296 -10.146770 3.487324 -5.776824 5.456680 -37.346159 3.927008 -11.058859 49.257209 -0.501907 -7.789319 1.871017 -0.351510 1.113890 0.228710 -3.899376 -1.782707 -7.483497 7.967931 -2.653022 7.496893 -5.299093 -1.645181 3.253815 1.369105 -3.329514 -6.441193 -8.086788 0.179671 33.010558 -0.619510 -4.502510 12.671380 -15.012177 3.895453 1.125663 -63.621347 -8.517912 -2.801429 -28.086136 -50.032908 9.653749 -4.220888 3.180888 0.110640 0.653630 -0.667450 0.250360 12.036261 -1.966249 2.269875 55.150284 -0.521205 -8.044017 5.580812 18.898553 -0.552665 2.165203 -1.297533 -0.434100 0.331310 0.412750 0.049380 
